<svg xmlns="http://www.w3.org/2000/svg" width="220.086" height="22" viewBox="0 0 220.086 22">
  <g id="Grupo_56" data-name="Grupo 56" transform="translate(-1197.867 -874.389)">
    <g id="Grupo_54" data-name="Grupo 54">
      <g id="Grupo_53" data-name="Grupo 53">
        <text id="Follow_Us" data-name="Follow Us" transform="translate(1197.867 891.389)" fill="#003c5e" font-size="18" font-family="Montserrat-Regular, Montserrat"><tspan x="0" y="0">Follow Us</tspan></text>
      </g>
    </g>
    <g id="Grupo_451" data-name="Grupo 451">
      <g id="Grupo_55" data-name="Grupo 55">
        <path id="Trazado_546" data-name="Trazado 546" d="M1329.753,882.14a2.037,2.037,0,0,0-1.435-1.436,47.526,47.526,0,0,0-6.374-.35,49.483,49.483,0,0,0-6.374.336,2.085,2.085,0,0,0-1.436,1.45,23.061,23.061,0,0,0,0,7.836,2.045,2.045,0,0,0,1.436,1.436,47.91,47.91,0,0,0,6.375.348,49.613,49.613,0,0,0,6.373-.335,2.041,2.041,0,0,0,1.436-1.436,21.528,21.528,0,0,0,.336-3.918A20.407,20.407,0,0,0,1329.753,882.14Zm-9.434,6.36v-4.885l4.239,2.443Z" fill="#003c5e"/>
        <g id="Grupo_448" data-name="Grupo 448">
          <path id="Trazado_547" data-name="Trazado 547" d="M1373.957,882.72a5.959,5.959,0,0,0-.377-1.972,4.17,4.17,0,0,0-2.38-2.379,5.984,5.984,0,0,0-1.972-.378c-.87-.041-1.147-.051-3.354-.051s-2.483.01-3.351.048a5.934,5.934,0,0,0-1.972.378,4.162,4.162,0,0,0-2.379,2.379,5.963,5.963,0,0,0-.378,1.972c-.042.87-.051,1.147-.051,3.354s.009,2.484.048,3.351a5.945,5.945,0,0,0,.378,1.973,4.159,4.159,0,0,0,2.378,2.378,5.971,5.971,0,0,0,1.973.379c.867.037,1.143.047,3.351.047s2.484-.01,3.351-.047a5.96,5.96,0,0,0,1.972-.379,4.155,4.155,0,0,0,2.379-2.378,6,6,0,0,0,.378-1.973c.038-.867.047-1.144.047-3.351S1373.995,883.587,1373.957,882.72Zm-1.464,6.638a4.445,4.445,0,0,1-.279,1.509,2.694,2.694,0,0,1-1.544,1.543,4.465,4.465,0,0,1-1.509.28c-.857.038-1.114.048-3.283.048s-2.433-.01-3.285-.048a4.446,4.446,0,0,1-1.509-.28,2.681,2.681,0,0,1-1.54-1.539,4.471,4.471,0,0,1-.279-1.509c-.038-.858-.048-1.115-.048-3.285s.01-2.432.048-3.284a4.466,4.466,0,0,1,.279-1.508,2.467,2.467,0,0,1,.61-.934,2.52,2.52,0,0,1,.934-.607,4.488,4.488,0,0,1,1.508-.279c.858-.038,1.115-.047,3.285-.047s2.432.009,3.283.047a4.464,4.464,0,0,1,1.509.279,2.683,2.683,0,0,1,1.541,1.541,4.466,4.466,0,0,1,.279,1.508c.038.858.048,1.115.048,3.284S1372.531,888.5,1372.493,889.358Z" fill="#003c5e"/>
          <path id="Trazado_548" data-name="Trazado 548" d="M1365.874,881.9a4.176,4.176,0,1,0,4.176,4.176A4.177,4.177,0,0,0,1365.874,881.9Zm0,6.885a2.709,2.709,0,1,1,2.71-2.709A2.708,2.708,0,0,1,1365.874,888.78Z" fill="#003c5e"/>
          <path id="Trazado_549" data-name="Trazado 549" d="M1371.191,881.73a.976.976,0,1,1-.976-.975h0a.974.974,0,0,1,.976.973Z" fill="#003c5e"/>
        </g>
        <g id="Grupo_450" data-name="Grupo 450">
          <g id="Grupo_449" data-name="Grupo 449">
            <path id="Trazado_550" data-name="Trazado 550" d="M1417.953,881a6.992,6.992,0,0,1-1.924.527,3.325,3.325,0,0,0,1.469-1.843,6.639,6.639,0,0,1-2.118.811,3.34,3.34,0,0,0-5.777,2.285,3.41,3.41,0,0,0,.074.761,9.454,9.454,0,0,1-6.884-3.493,3.341,3.341,0,0,0,1.026,4.463,3.3,3.3,0,0,1-1.509-.411v.037a3.358,3.358,0,0,0,2.676,3.282,3.359,3.359,0,0,1-.876.11,3.036,3.036,0,0,1-.631-.057,3.37,3.37,0,0,0,3.12,2.326,6.7,6.7,0,0,1-4.14,1.424,6.105,6.105,0,0,1-.8-.046,9.508,9.508,0,0,0,14.629-8.005c0-.147-.005-.289-.012-.431A6.67,6.67,0,0,0,1417.953,881Z" fill="#003c5e"/>
          </g>
        </g>
      </g>
    </g>
  </g>
</svg>
