<svg xmlns="http://www.w3.org/2000/svg" viewBox="0 0 21.36 21.36">
  <g id="Capa_2" data-name="Capa 2">
    <g id="Layer_2" data-name="Layer 2">
      <g>
        <path d="M10.68,1.92c2.85,0,3.19,0,4.32.07a5.94,5.94,0,0,1,2,.36,3.54,3.54,0,0,1,2,2,5.94,5.94,0,0,1,.36,2c.06,1.13.07,1.47.07,4.32s0,3.19-.07,4.32A5.94,5.94,0,0,1,19,17a3.54,3.54,0,0,1-2,2,5.94,5.94,0,0,1-2,.36c-1.13.06-1.47.07-4.32.07s-3.19,0-4.32-.07a5.94,5.94,0,0,1-2-.36,3.54,3.54,0,0,1-2-2A5.94,5.94,0,0,1,2,15c-.05-1.13-.07-1.47-.07-4.32s0-3.19.07-4.32a5.94,5.94,0,0,1,.36-2,3.54,3.54,0,0,1,2-2,5.94,5.94,0,0,1,2-.36c1.13-.05,1.47-.07,4.32-.07m0-1.92c-2.9,0-3.26,0-4.4.06a8.19,8.19,0,0,0-2.6.5A5.45,5.45,0,0,0,.56,3.68a8.19,8.19,0,0,0-.5,2.6C0,7.42,0,7.78,0,10.68s0,3.27.06,4.4a8.19,8.19,0,0,0,.5,2.6,5.22,5.22,0,0,0,1.23,1.89A5.31,5.31,0,0,0,3.68,20.8a7.92,7.92,0,0,0,2.6.5c1.14.05,1.5.06,4.4.06s3.27,0,4.4-.06a7.92,7.92,0,0,0,2.6-.5,5.45,5.45,0,0,0,3.12-3.12,7.92,7.92,0,0,0,.5-2.6c.05-1.13.06-1.5.06-4.4s0-3.26-.06-4.4a7.92,7.92,0,0,0-.5-2.6,5.31,5.31,0,0,0-1.23-1.89A5.22,5.22,0,0,0,17.68.56a8.19,8.19,0,0,0-2.6-.5C14,0,13.58,0,10.68,0Z"/>
        <path d="M10.68,5.2a5.49,5.49,0,1,0,5.49,5.48A5.48,5.48,0,0,0,10.68,5.2Zm0,9a3.56,3.56,0,1,1,3.56-3.56A3.56,3.56,0,0,1,10.68,14.24Z"/>
        <circle cx="16.38" cy="4.98" r="1.28"/>
      </g>
    </g>
  </g>
</svg>
