<svg id="Capa_1" data-name="Capa 1" xmlns="http://www.w3.org/2000/svg" xmlns:xlink="http://www.w3.org/1999/xlink" viewBox="0 0 1011.68 171.12"><defs><style>.cls-1{fill:none;}.cls-2{fill:#003961;}.cls-3{clip-path:url(#clip-path);}.cls-4{fill:url(#Degradado_sin_nombre);}.cls-5{clip-path:url(#clip-path-2);}.cls-6{fill:url(#Degradado_sin_nombre_2);}</style><clipPath id="clip-path"><path class="cls-1" d="M66.17,12.52c-6.31,5.72-6.79,5.39-13,11.19a1.09,1.09,0,0,0-.28,1.17L62.3,50.35a1.08,1.08,0,0,0,1.75.41c6-5.58,35.41-32,42.82-38.53h0c3.2-2.79,6.82-5.11,10.28-7.61a1.1,1.1,0,0,0,.42-1.13,1.11,1.11,0,0,0-.81-.81c-2-.44-3.89-.92-5.85-1.3A66.53,66.53,0,0,0,98.45.14,46.34,46.34,0,0,0,66.17,12.52"/></clipPath><linearGradient id="Degradado_sin_nombre" x1="-2043.42" y1="726.63" x2="-2042.42" y2="726.63" gradientTransform="matrix(-64.5, 0, 0, 64.5, -131687.45, -46841.46)" gradientUnits="userSpaceOnUse"><stop offset="0" stop-color="#00ffe0"/><stop offset="1" stop-color="#0082c4"/></linearGradient><clipPath id="clip-path-2"><path class="cls-1" d="M126.72,15.29c-2.73,3.37-5.27,6.92-8.28,10h0c-6.86,7.05-14,13.85-21,20.77-2.83,2.78-5.62,5.61-8.47,8.37-10.7,10.37-21.52,20.6-32.12,31.06a.78.78,0,0,1-1.27-.28c-4.51-12.15-9-24.31-13.66-36.4C35.84,33,23.69,24.05,7.81,19.57,5.94,19,4,18.61,2.14,18.14a1,1,0,0,0-1,.35A1,1,0,0,0,1,19.64c1.92,3.7,4.07,7.3,5.63,11.14,3.62,8.89,6.91,17.92,10.35,26.9,1.38,3.61,2.82,7.21,4.17,10.84,3.78,10.1,7.46,20.24,11.24,30.34h0l24.78,67.72L93.38,132.7a12,12,0,0,1,19.05,4.21l9,21.09a21.45,21.45,0,0,0,26.43,11.88l4.95-1.66c-2.44-5.68-8.86-20.54-19.13-44.28a36.56,36.56,0,0,0-24.85-21.09,35.6,35.6,0,0,0-31.07,6.66c-1.43,1.13-3.19,2.34-4.52,3.59l-.17.14-9,7.42c3-7.88,9.47-13.48,15.48-19.32C91.72,89.54,104,77.86,116,65.93c12.32-12.21,15.77-27.31,13.46-44.08-.28-2-.67-4.07-1-6.1a.78.78,0,0,0-.55-.61l-.38-.11a.83.83,0,0,0-.22,0,.76.76,0,0,0-.6.29"/></clipPath><linearGradient id="Degradado_sin_nombre_2" x1="-2041.87" y1="711.94" x2="-2040.87" y2="711.94" gradientTransform="matrix(-156.66, 0, 0, 156.66, -319737.99, -111437.78)" gradientUnits="userSpaceOnUse"><stop offset="0" stop-color="#0098ff"/><stop offset="0.15" stop-color="#0e8ced"/><stop offset="0.52" stop-color="#2b73c7"/><stop offset="0.82" stop-color="#3d63af"/><stop offset="1" stop-color="#445da6"/></linearGradient></defs><path class="cls-2" d="M185.77,61.58V85.77h17l25.53-24.19h24.37L218.74,93.22l34.92,30.4H229.29l-26.23-23.05H185.77v23.05H168.4v-62Z"/><path class="cls-2" d="M308.88,61.58l39,62H327.49l-7-11.53h-41.3l-6.91,11.53H251.89l39-62Zm-9,16.22-12.5,20.73h25Z"/><path class="cls-2" d="M416.75,123.62,371.63,82.05v41.57H354.26v-62h18.26l45.11,41.56V61.58H435v62Z"/><path class="cls-2" d="M510.78,123.62,465.67,82.05v41.57H448.3v-62h18.26l45.11,41.56V61.58H529v62Z"/><path class="cls-2" d="M592.41,61.58l39,62H611l-7-11.53h-41.3l-6.91,11.53H535.42l39-62Zm-9,16.22L570.88,98.53h25Z"/><path class="cls-2" d="M698.24,61.58a20.16,20.16,0,0,1,14.71,6,19.74,19.74,0,0,1,6,14.54V84a20.11,20.11,0,0,1-5.5,14.53q-5.44,5.59-14.09,5.59H655.17v19.5H637.79v-62ZM655.17,76.91V89.32h40.5c3.54,0,5.94-2.13,5.94-5.23V82.23c0-3.1-2.49-5.32-6-5.32Z"/><path class="cls-2" d="M813.81,105.63a17.1,17.1,0,0,1-5.31,12.93q-5.19,5.06-13.57,5.06H745.48c-5.58,0-10.1-1.69-13.65-5.06a17.11,17.11,0,0,1-5.32-12.93V79.57a17.13,17.13,0,0,1,5.32-12.94c3.55-3.37,8.07-5,13.65-5h49.45q8.39,0,13.57,5a17.12,17.12,0,0,1,5.31,12.94ZM796.44,82.14a5,5,0,0,0-5.32-5.23h-42a5.08,5.08,0,0,0-5.23,5.23v20.92a5.07,5.07,0,0,0,5.23,5.22h42a5,5,0,0,0,5.32-5.22Z"/><path class="cls-2" d="M843,61.58v46.7h55.74v15.34H825.6v-62Z"/><path class="cls-2" d="M924.43,61.58v62H907.06v-62Z"/><path class="cls-2" d="M1010.84,123.62h-76V110.68l47.59-33.77H935.77V61.58h73.74V75.31l-46.53,33h47.86Z"/><g class="cls-3"><rect class="cls-4" x="56.58" y="-9.09" width="57.23" height="69.61" transform="translate(51.3 108) rotate(-84.41)"/></g><g class="cls-5"><rect class="cls-6" x="-10.75" y="9.48" width="175.04" height="169.44" transform="translate(-25.74 159.47) rotate(-83.31)"/></g></svg>