<svg xmlns="http://www.w3.org/2000/svg" viewBox="0 0 21.96 17.84">
  <g id="Capa_2" data-name="Capa 2">
    <g id="Layer_2" data-name="Layer 2">
      <path d="M6.9,17.84A12.73,12.73,0,0,0,19.72,5c0-.2,0-.39,0-.59A9.07,9.07,0,0,0,22,2.11a9,9,0,0,1-2.59.71,4.54,4.54,0,0,0,2-2.49,8.93,8.93,0,0,1-2.86,1.09A4.51,4.51,0,0,0,10.7,4.5a4.93,4.93,0,0,0,.11,1A12.78,12.78,0,0,1,1.53.82a4.52,4.52,0,0,0,1.39,6,4.42,4.42,0,0,1-2-.57v.06A4.51,4.51,0,0,0,4.5,10.75a4.68,4.68,0,0,1-1.19.16,4.8,4.8,0,0,1-.85-.08A4.49,4.49,0,0,0,6.67,14a9,9,0,0,1-5.6,1.93A9.46,9.46,0,0,1,0,15.82a12.71,12.71,0,0,0,6.9,2"/>
    </g>
  </g>
</svg>
